# Blender 5.1.1
# www.blender.org
g Torso_Torso.004
v -1.949139 1.993007 0.510047
v -1.949139 4.012282 0.503770
v -1.949139 2.006688 -0.530771
v -1.949139 4.025963 -0.537049
v 0.053244 1.993007 0.510047
v 0.053244 4.012282 0.503770
v 0.053244 2.006688 -0.530771
v 0.053244 4.025963 -0.537049
vn -0.3327 -0.6702 0.6635
vn -0.3340 0.6631 0.6698
vn -0.3340 -0.6631 -0.6698
vn -0.3327 0.6702 -0.6635
vn 0.3327 -0.6702 0.6635
vn 0.3340 0.6631 0.6698
vn 0.3340 -0.6631 -0.6698
vn 0.3327 0.6702 -0.6635
vt 0.391438 0.638660
vt 0.391439 0.867607
vt 0.282058 0.867613
vt 0.282069 0.638654
vt 0.613512 0.638935
vt 0.613501 0.867381
vt 0.395244 0.867370
vt 0.395419 0.639148
vt 0.726413 0.638779
vt 0.726489 0.867610
vt 0.617118 0.867601
vt 0.617250 0.638792
vt 0.948625 0.638774
vt 0.948679 0.867572
vt 0.729981 0.867563
vt 0.730120 0.638851
vt 0.613671 0.635057
vt 0.394879 0.635057
vt 0.394880 0.520581
vt 0.613664 0.520584
vt 0.394944 0.871276
vt 0.613629 0.871254
vt 0.613614 0.985618
vt 0.395255 0.985329
s 1
f 1/1/1 2/2/2 4/3/4 3/4/3
f 3/5/3 4/6/4 8/7/8 7/8/7
f 7/9/7 8/10/8 6/11/6 5/12/5
f 5/13/5 6/14/6 2/15/2 1/16/1
f 3/17/3 7/18/7 5/19/5 1/20/1
f 8/21/8 4/22/4 2/23/2 6/24/6
g Left_Arm_Left_Arm.003
v 0.068768 1.974742 0.510420
v 0.068768 4.012217 0.503771
v 0.068768 1.988423 -0.530399
v 0.068768 4.025898 -0.537047
v 1.051839 1.974742 0.510420
v 1.051839 4.012217 0.503771
v 1.051839 1.988423 -0.530399
v 1.051839 4.025898 -0.537047
vn -0.3327 -0.6701 0.6635
vn -0.3340 0.6632 0.6698
vn -0.3340 -0.6632 -0.6698
vn -0.3327 0.6701 -0.6635
vn 0.3327 -0.6701 0.6635
vn 0.3340 0.6632 0.6698
vn 0.3340 -0.6632 -0.6698
vn 0.3327 0.6701 -0.6635
vt 0.974357 0.135959
vt 0.974357 0.364936
vt 0.864964 0.364929
vt 0.864962 0.135964
vt 0.480320 0.135991
vt 0.480180 0.364685
vt 0.371151 0.364703
vt 0.370988 0.136010
vt 0.748385 0.136425
vt 0.748441 0.364702
vt 0.639397 0.364862
vt 0.639600 0.136229
vt 0.861475 0.136028
vt 0.861500 0.364888
vt 0.752206 0.364893
vt 0.752210 0.136041
vt 0.635773 0.017980
vt 0.635804 0.132284
vt 0.526557 0.132321
vt 0.526575 0.017991
vt 0.526523 0.368551
vt 0.635863 0.368547
vt 0.635873 0.482975
vt 0.526593 0.482934
s 1
f 9/25/9 10/26/10 12/27/12 11/28/11
f 11/29/11 12/30/12 16/31/16 15/32/15
f 15/33/15 16/34/16 14/35/14 13/36/13
f 13/37/13 14/38/14 10/39/10 9/40/9
f 11/41/11 15/42/15 13/43/13 9/44/9
f 16/45/16 12/46/12 10/47/10 14/48/14
g Right_Arm_Right_Arm.003
v -2.952373 1.974742 0.510420
v -2.952373 4.012217 0.503771
v -2.952373 1.988423 -0.530399
v -2.952373 4.025898 -0.537047
v -1.969302 1.974742 0.510420
v -1.969302 4.012217 0.503771
v -1.969302 1.988423 -0.530399
v -1.969302 4.025898 -0.537047
vn -0.3327 -0.6701 0.6635
vn -0.3340 0.6632 0.6698
vn -0.3340 -0.6632 -0.6698
vn -0.3327 0.6701 -0.6635
vn 0.3327 -0.6701 0.6635
vn 0.3340 0.6632 0.6698
vn 0.3340 -0.6632 -0.6698
vn 0.3327 0.6701 -0.6635
vt 0.367508 0.135975
vt 0.367517 0.364933
vt 0.258127 0.364930
vt 0.258138 0.135982
vt 0.635879 0.135997
vt 0.635850 0.364879
vt 0.526579 0.364887
vt 0.526720 0.136209
vt 0.141833 0.136016
vt 0.141848 0.364900
vt 0.032506 0.364913
vt 0.032720 0.136235
vt 0.254521 0.136148
vt 0.254675 0.364908
vt 0.145328 0.364912
vt 0.145372 0.136047
vt 0.480299 0.132335
vt 0.370950 0.132366
vt 0.371015 0.017950
vt 0.480295 0.017941
vt 0.371005 0.368614
vt 0.480318 0.368562
vt 0.480264 0.482942
vt 0.370969 0.482976
s 1
f 17/49/17 18/50/18 20/51/20 19/52/19
f 19/53/19 20/54/20 24/55/24 23/56/23
f 23/57/23 24/58/24 22/59/22 21/60/21
f 21/61/21 22/62/22 18/63/18 17/64/17
f 19/65/19 23/66/23 21/67/21 17/68/17
f 24/69/24 20/70/20 18/71/18 22/72/22
g Left_Leg_Left_Leg.003
v -0.939083 -0.024865 0.519080
v -0.939083 1.975746 0.513183
v -0.939083 -0.011184 -0.521738
v -0.939083 1.989427 -0.527635
v 0.043989 -0.024865 0.519080
v 0.043989 1.975746 0.513183
v 0.043989 -0.011184 -0.521738
v 0.043989 1.989427 -0.527635
vn -0.3327 -0.6702 0.6634
vn -0.3340 0.6631 0.6699
vn -0.3340 -0.6631 -0.6699
vn -0.3327 0.6702 -0.6634
vn 0.3327 -0.6702 0.6634
vn 0.3340 0.6631 0.6699
vn 0.3340 -0.6631 -0.6699
vn 0.3327 0.6702 -0.6634
vt 0.974358 0.135958
vt 0.974347 0.364919
vt 0.864962 0.364934
vt 0.864977 0.135978
vt 0.480209 0.136046
vt 0.480222 0.364802
vt 0.371038 0.364883
vt 0.371301 0.136366
vt 0.748455 0.136214
vt 0.748514 0.364718
vt 0.639458 0.364825
vt 0.639498 0.136138
vt 0.861455 0.136034
vt 0.861489 0.364897
vt 0.752487 0.364638
vt 0.752238 0.136045
vt 0.480331 0.132370
vt 0.370947 0.132372
vt 0.370943 0.017891
vt 0.480327 0.017923
vt 0.526500 0.368519
vt 0.635878 0.368533
vt 0.635897 0.483004
vt 0.526500 0.483003
s 1
f 25/73/25 26/74/26 28/75/28 27/76/27
f 27/77/27 28/78/28 32/79/32 31/80/31
f 31/81/31 32/82/32 30/83/30 29/84/29
f 29/85/29 30/86/30 26/87/26 25/88/25
f 27/89/27 31/90/31 29/91/29 25/92/25
f 32/93/32 28/94/28 26/95/26 30/96/30
g Head_Head.003
v -0.949492 4.168369 -0.673912
v -0.949492 4.893126 -0.688696
v -0.704219 4.169364 -0.625135
v -0.704219 4.894121 -0.639919
v -0.496287 4.172198 -0.486228
v -0.496287 4.896955 -0.501012
v -0.357351 4.176438 -0.278339
v -0.357351 4.901195 -0.293123
v -0.308563 4.181440 -0.033117
v -0.308563 4.906197 -0.047901
v -0.357351 4.186442 0.212105
v -0.357351 4.911199 0.197321
v -0.496287 4.190683 0.419994
v -0.496287 4.915440 0.405210
v -0.704219 4.193517 0.558901
v -0.704219 4.918273 0.544117
v -0.949492 4.194511 0.607678
v -0.949492 4.919268 0.592894
v -1.194764 4.193517 0.558901
v -1.194764 4.918273 0.544117
v -1.402697 4.190683 0.419994
v -1.402697 4.915440 0.405210
v -1.541632 4.186442 0.212105
v -1.541632 4.911199 0.197321
v -1.590420 4.181440 -0.033117
v -1.590420 4.906197 -0.047901
v -1.541632 4.176438 -0.278339
v -1.541632 4.901195 -0.293123
v -1.402697 4.172198 -0.486228
v -1.402697 4.896955 -0.501012
v -1.194764 4.169364 -0.625135
v -1.194764 4.894121 -0.639919
v -0.727004 4.987871 -0.586812
v -0.949492 4.986969 -0.631059
v -0.538387 4.990441 -0.460809
v -0.412358 4.994288 -0.272232
v -0.368102 4.998826 -0.049790
v -0.412358 5.003363 0.172651
v -0.538387 5.007210 0.361228
v -0.727004 5.009780 0.487231
v -0.949492 5.010683 0.531478
v -1.171980 5.009780 0.487231
v -1.360596 5.007210 0.361228
v -1.486625 5.003363 0.172651
v -1.530881 4.998826 -0.049790
v -1.486625 4.994288 -0.272232
v -1.360596 4.990441 -0.460809
v -1.171980 4.987871 -0.586812
v -0.790393 5.087750 -0.435781
v -0.949492 5.087105 -0.467421
v -0.655517 5.089588 -0.345678
v -0.565395 5.092339 -0.210829
v -0.533748 5.095583 -0.051764
v -0.565395 5.098828 0.107301
v -0.655517 5.101579 0.242150
v -0.790393 5.103417 0.332253
v -0.949492 5.104062 0.363893
v -1.108590 5.103417 0.332253
v -1.243466 5.101579 0.242150
v -1.333588 5.098828 0.107301
v -1.365235 5.095583 -0.051764
v -1.333588 5.092339 -0.210829
v -1.243466 5.089588 -0.345678
v -1.108590 5.087750 -0.435781
v -0.949492 4.085243 -0.659288
v -0.709165 4.086217 -0.611494
v -0.505427 4.088994 -0.475389
v -0.369293 4.093149 -0.271692
v -0.321489 4.098050 -0.031416
v -0.369293 4.102952 0.208860
v -0.505427 4.107106 0.412556
v -0.709165 4.109883 0.548662
v -0.949492 4.110857 0.596456
v -1.189818 4.109883 0.548662
v -1.393556 4.107106 0.412556
v -1.529690 4.102952 0.208860
v -1.577494 4.098050 -0.031416
v -1.529690 4.093149 -0.271692
v -1.393556 4.088994 -0.475389
v -1.189818 4.086217 -0.611494
v -0.949492 3.959798 -0.569723
v -0.742454 3.960638 -0.528549
v -0.566937 3.963030 -0.411296
v -0.449660 3.966609 -0.235815
v -0.408477 3.970832 -0.028821
v -0.449660 3.975054 0.178173
v -0.566937 3.978634 0.353654
v -0.742454 3.981025 0.470907
v -0.949492 3.981865 0.512081
v -1.156529 3.981025 0.470907
v -1.332046 3.978634 0.353654
v -1.449323 3.975054 0.178173
v -1.490506 3.970832 -0.028821
v -1.449323 3.966609 -0.235815
v -1.332046 3.963030 -0.411296
v -1.156529 3.960638 -0.528549
vn -0.0000 -0.0964 -0.9953
vn -0.0000 0.2530 -0.9675
vn 0.3816 -0.0949 -0.9195
vn 0.3682 0.2545 -0.8942
vn 0.7051 -0.0904 -0.7034
vn 0.6803 0.2588 -0.6857
vn 0.9212 -0.0838 -0.3799
vn 0.8889 0.2651 -0.3737
vn 0.9971 -0.0761 0.0016
vn 0.9621 0.2726 -0.0056
vn 0.9212 -0.0683 0.3830
vn 0.8889 0.2802 0.3625
vn 0.7051 -0.0617 0.7065
vn 0.6803 0.2865 0.6746
vn 0.3816 -0.0573 0.9226
vn 0.3682 0.2908 0.8831
vn -0.0000 -0.0557 0.9984
vn -0.0000 0.2923 0.9563
vn -0.3816 -0.0573 0.9226
vn -0.3682 0.2908 0.8831
vn -0.7051 -0.0617 0.7065
vn -0.6803 0.2865 0.6746
vn -0.9212 -0.0683 0.3830
vn -0.8889 0.2802 0.3625
vn -0.9971 -0.0761 0.0016
vn -0.9621 0.2726 -0.0056
vn -0.9212 -0.0838 -0.3799
vn -0.8889 0.2651 -0.3737
vn -0.7051 -0.0904 -0.7034
vn -0.6803 0.2588 -0.6857
vn -0.3816 -0.0949 -0.9195
vn -0.3682 0.2545 -0.8942
vn 0.2704 0.6942 -0.6670
vn -0.0000 0.6931 -0.7208
vn 0.4996 0.6974 -0.5139
vn 0.6527 0.7020 -0.2847
vn 0.7065 0.7076 -0.0144
vn 0.6527 0.7131 0.2559
vn 0.4996 0.7177 0.4850
vn 0.2704 0.7209 0.6382
vn -0.0000 0.7220 0.6919
vn -0.2704 0.7209 0.6382
vn -0.4996 0.7177 0.4850
vn -0.6527 0.7131 0.2559
vn -0.7065 0.7076 -0.0144
vn -0.6527 0.7020 -0.2847
vn -0.4996 0.6974 -0.5139
vn -0.2704 0.6942 -0.6670
vn 0.1114 0.9510 -0.2885
vn -0.0000 0.9505 -0.3106
vn 0.2059 0.9523 -0.2254
vn 0.2690 0.9542 -0.1309
vn 0.2912 0.9565 -0.0195
vn 0.2690 0.9587 0.0919
vn 0.2059 0.9607 0.1864
vn 0.1114 0.9620 0.2495
vn -0.0000 0.9624 0.2716
vn -0.1114 0.9620 0.2495
vn -0.2059 0.9607 0.1864
vn -0.2690 0.9587 0.0919
vn -0.2912 0.9565 -0.0195
vn -0.2690 0.9542 -0.1309
vn -0.2059 0.9523 -0.2254
vn -0.1114 0.9510 -0.2885
vn -0.0000 -0.3777 -0.9259
vn 0.3572 -0.3763 -0.8549
vn 0.6600 -0.3722 -0.6526
vn 0.8624 -0.3660 -0.3498
vn 0.9334 -0.3587 0.0073
vn 0.8624 -0.3514 0.3644
vn 0.6600 -0.3452 0.6672
vn 0.3572 -0.3411 0.8695
vn -0.0000 -0.3397 0.9405
vn -0.3572 -0.3411 0.8695
vn -0.6600 -0.3452 0.6672
vn -0.8624 -0.3514 0.3644
vn -0.9334 -0.3587 0.0073
vn -0.8624 -0.3660 -0.3498
vn -0.6600 -0.3722 -0.6526
vn -0.3572 -0.3763 -0.8549
vn -0.0000 -0.8705 -0.4922
vn 0.1951 -0.8697 -0.4534
vn 0.3605 -0.8674 -0.3429
vn 0.4710 -0.8641 -0.1775
vn 0.5098 -0.8601 0.0175
vn 0.4710 -0.8561 0.2126
vn 0.3605 -0.8527 0.3780
vn 0.1951 -0.8505 0.4885
vn -0.0000 -0.8497 0.5273
vn -0.1951 -0.8505 0.4885
vn -0.3605 -0.8527 0.3780
vn -0.4710 -0.8561 0.2126
vn -0.5098 -0.8601 0.0175
vn -0.4710 -0.8641 -0.1775
vn -0.3605 -0.8674 -0.3429
vn -0.1951 -0.8697 -0.4534
vt 1.000000 0.500000
vt 1.000000 1.000000
vt 0.937500 1.000000
vt 0.937500 0.500000
vt 0.875000 1.000000
vt 0.875000 0.500000
vt 0.812500 1.000000
vt 0.812500 0.500000
vt 0.750000 1.000000
vt 0.750000 0.500000
vt 0.687500 1.000000
vt 0.687500 0.500000
vt 0.625000 1.000000
vt 0.625000 0.500000
vt 0.562500 1.000000
vt 0.562500 0.500000
vt 0.500000 1.000000
vt 0.500000 0.500000
vt 0.437500 1.000000
vt 0.437500 0.500000
vt 0.375000 1.000000
vt 0.375000 0.500000
vt 0.312500 1.000000
vt 0.312500 0.500000
vt 0.250000 1.000000
vt 0.250000 0.500000
vt 0.187500 1.000000
vt 0.187500 0.500000
vt 0.125000 1.000000
vt 0.125000 0.500000
vt 0.000000 1.000000
vt 0.062500 1.000000
vt 0.062500 0.500000
vt 0.000000 0.500000
vt 0.341844 0.471731
vt 0.250000 0.490000
vt 0.158156 0.471731
vt 0.080294 0.419706
vt 0.028269 0.341844
vt 0.010000 0.250000
vt 0.028269 0.158156
vt 0.080294 0.080294
vt 0.158156 0.028269
vt 0.250000 0.010000
vt 0.341844 0.028269
vt 0.419706 0.080294
vt 0.471731 0.158156
vt 0.490000 0.250000
vt 0.471731 0.341844
vt 0.419706 0.419706
vt 0.750000 0.490000
vt 0.841844 0.471731
vt 0.919706 0.419706
vt 0.971731 0.341844
vt 0.990000 0.250000
vt 0.971731 0.158156
vt 0.919706 0.080294
vt 0.841844 0.028269
vt 0.750000 0.010000
vt 0.658156 0.028269
vt 0.580294 0.080294
vt 0.528269 0.158156
vt 0.510000 0.250000
vt 0.528269 0.341844
vt 0.580294 0.419706
vt 0.658156 0.471731
s 1
f 33/97/33 34/98/34 36/99/36 35/100/35
f 35/100/35 36/99/36 38/101/38 37/102/37
f 37/102/37 38/101/38 40/103/40 39/104/39
f 39/104/39 40/103/40 42/105/42 41/106/41
f 41/106/41 42/105/42 44/107/44 43/108/43
f 43/108/43 44/107/44 46/109/46 45/110/45
f 45/110/45 46/109/46 48/111/48 47/112/47
f 47/112/47 48/111/48 50/113/50 49/114/49
f 49/114/49 50/113/50 52/115/52 51/116/51
f 51/116/51 52/115/52 54/117/54 53/118/53
f 53/118/53 54/117/54 56/119/56 55/120/55
f 55/120/55 56/119/56 58/121/58 57/122/57
f 57/122/57 58/121/58 60/123/60 59/124/59
f 59/124/59 60/123/60 62/125/62 61/126/61
f 34/127/34 64/128/64 80/128/80 66/127/66
f 61/126/61 62/125/62 64/128/64 63/129/63
f 63/129/63 64/128/64 34/127/34 33/130/33
f 39/104/39 41/106/41 101/106/101 100/104/100
f 80/128/80 79/125/79 95/125/95 96/128/96
f 42/105/42 40/103/40 68/103/68 69/105/69
f 52/115/52 50/113/50 73/113/73 74/115/74
f 62/125/62 60/123/60 78/123/78 79/125/79
f 38/101/38 36/99/36 65/99/65 67/101/67
f 48/111/48 46/109/46 71/109/71 72/111/72
f 58/121/58 56/119/56 76/119/76 77/121/77
f 44/107/44 42/105/42 69/105/69 70/107/70
f 54/117/54 52/115/52 74/115/74 75/117/75
f 64/128/64 62/125/62 79/125/79 80/128/80
f 40/103/40 38/101/38 67/101/67 68/103/68
f 50/113/50 48/111/48 72/111/72 73/113/73
f 36/99/36 34/98/34 66/98/66 65/99/65
f 60/123/60 58/121/58 77/121/77 78/123/78
f 46/109/46 44/107/44 70/107/70 71/109/71
f 56/119/56 54/117/54 75/117/75 76/119/76
f 81/131/81 82/132/82 96/133/96 95/134/95 94/135/94 93/136/93 92/137/92 91/138/91 90/139/90 89/140/89 88/141/88 87/142/87 86/143/86 85/144/85 84/145/84 83/146/83
f 73/113/73 72/111/72 88/111/88 89/113/89
f 65/99/65 66/98/66 82/98/82 81/99/81
f 66/127/66 80/128/80 96/128/96 82/127/82
f 74/115/74 73/113/73 89/113/89 90/115/90
f 67/101/67 65/99/65 81/99/81 83/101/83
f 75/117/75 74/115/74 90/115/90 91/117/91
f 68/103/68 67/101/67 83/101/83 84/103/84
f 76/119/76 75/117/75 91/117/91 92/119/92
f 69/105/69 68/103/68 84/103/84 85/105/85
f 77/121/77 76/119/76 92/119/92 93/121/93
f 70/107/70 69/105/69 85/105/85 86/107/86
f 78/123/78 77/121/77 93/121/93 94/123/94
f 71/109/71 70/107/70 86/107/86 87/109/87
f 79/125/79 78/123/78 94/123/94 95/125/95
f 72/111/72 71/109/71 87/109/87 88/111/88
f 106/116/106 107/118/107 123/118/123 122/116/122
f 49/114/49 51/116/51 106/116/106 105/114/105
f 59/124/59 61/126/61 111/126/111 110/124/110
f 35/100/35 37/102/37 99/102/99 98/100/98
f 45/110/45 47/112/47 104/112/104 103/110/103
f 55/120/55 57/122/57 109/122/109 108/120/108
f 41/106/41 43/108/43 102/108/102 101/106/101
f 51/116/51 53/118/53 107/118/107 106/116/106
f 61/126/61 63/129/63 112/129/112 111/126/111
f 37/102/37 39/104/39 100/104/100 99/102/99
f 47/112/47 49/114/49 105/114/105 104/112/104
f 33/97/33 35/100/35 98/100/98 97/97/97
f 57/122/57 59/124/59 110/124/110 109/122/109
f 43/108/43 45/110/45 103/110/103 102/108/102
f 53/118/53 55/120/55 108/120/108 107/118/107
f 63/129/63 33/130/33 97/130/97 112/129/112
f 113/147/113 114/148/114 115/149/115 116/150/116 117/151/117 118/152/118 119/153/119 120/154/120 121/155/121 122/156/122 123/157/123 124/158/124 125/159/125 126/160/126 127/161/127 128/162/128
f 99/102/99 100/104/100 116/104/116 115/102/115
f 107/118/107 108/120/108 124/120/124 123/118/123
f 100/104/100 101/106/101 117/106/117 116/104/116
f 108/120/108 109/122/109 125/122/125 124/120/124
f 101/106/101 102/108/102 118/108/118 117/106/117
f 109/122/109 110/124/110 126/124/126 125/122/125
f 102/108/102 103/110/103 119/110/119 118/108/118
f 110/124/110 111/126/111 127/126/127 126/124/126
f 103/110/103 104/112/104 120/112/120 119/110/119
f 111/126/111 112/129/112 128/129/128 127/126/127
f 104/112/104 105/114/105 121/114/121 120/112/120
f 97/97/97 98/100/98 114/100/114 113/97/113
f 112/129/112 97/130/97 113/130/113 128/129/128
f 105/114/105 106/116/106 122/116/122 121/114/121
f 98/100/98 99/102/99 115/102/115 114/100/114
g Right_Leg_Right_Leg.003
v -1.941647 -0.024865 0.519080
v -1.941647 1.975746 0.513183
v -1.941647 -0.011184 -0.521738
v -1.941647 1.989427 -0.527635
v -0.958576 -0.024865 0.519080
v -0.958576 1.975746 0.513183
v -0.958576 -0.011184 -0.521738
v -0.958576 1.989427 -0.527635
vn -0.3327 -0.6702 0.6634
vn -0.3340 0.6631 0.6699
vn -0.3340 -0.6631 -0.6699
vn -0.3327 0.6702 -0.6634
vn 0.3327 -0.6702 0.6634
vn 0.3340 0.6631 0.6699
vn 0.3340 -0.6631 -0.6699
vn 0.3327 0.6702 -0.6634
vt 0.367427 0.136039
vt 0.367512 0.364924
vt 0.258128 0.364928
vt 0.258337 0.136242
vt 0.635810 0.136122
vt 0.635855 0.364891
vt 0.526524 0.364922
vt 0.526625 0.136061
vt 0.141873 0.135964
vt 0.141873 0.364930
vt 0.032481 0.364936
vt 0.032534 0.136028
vt 0.254617 0.136067
vt 0.254648 0.364885
vt 0.145356 0.364886
vt 0.145388 0.136050
vt 0.480302 0.132318
vt 0.370998 0.132323
vt 0.370966 0.017922
vt 0.480283 0.017949
vt 0.370942 0.368516
vt 0.480340 0.368517
vt 0.480341 0.483004
vt 0.370942 0.483003
s 1
f 129/163/129 130/164/130 132/165/132 131/166/131
f 131/167/131 132/168/132 136/169/136 135/170/135
f 135/171/135 136/172/136 134/173/134 133/174/133
f 133/175/133 134/176/134 130/177/130 129/178/129
f 131/179/131 135/180/135 133/181/133 129/182/129
f 136/183/136 132/184/132 130/185/130 134/186/134
